<?xml version="1.0" encoding="UTF-8"?>
<svg version="1.1" xmlns="http://www.w3.org/2000/svg" width="3840" height="800">
<path d="M0 0 C1251.69 0 2503.38 0 3793 0 C3793 254.43 3793 508.86 3793 771 C2541.31 771 1289.62 771 0 771 C-0.65228216 514.00082777 -0.68169521 256.9990959 0 0 Z " fill="#231F20" transform="translate(23,14)"/>
<path d="M0 0 C250.47 0 500.94 0 759 0 C759 86.46 759 172.92 759 262 C790.02 262 821.04 262 853 262 C853.66 271.24 854.32 280.48 855 290 C857.64 287.69 860.28 285.38 863 283 C876.57870563 272.93980174 892.30984538 265.31906001 908.5 260.5625 C909.24386963 260.33989502 909.98773926 260.11729004 910.75415039 259.88793945 C926.73450462 255.55725178 943.2336777 254.49864713 959.71166992 254.60888672 C962.56542561 254.62501654 965.41777002 254.60889293 968.27148438 254.58984375 C980.76010343 254.57536862 992.72313404 255.7371478 1005 258 C1006.64295044 258.29801514 1006.64295044 258.29801514 1008.3190918 258.60205078 C1043.13620177 265.35071475 1074.49472056 280.62289146 1094.83984375 310.640625 C1097.61718676 314.95982028 1100.01779545 319.26383092 1102 324 C1102.44085937 325.04994141 1102.44085937 325.04994141 1102.890625 326.12109375 C1107.61362007 338.73889922 1107.28491882 352.4047011 1107.22705078 365.66357422 C1107.22648536 367.49812819 1107.22680577 369.33268262 1107.22793579 371.16723633 C1107.22850521 376.1043069 1107.21681801 381.04127856 1107.20278788 385.97832632 C1107.19021146 391.15393148 1107.1891046 396.32953938 1107.18673706 401.50515747 C1107.18054248 411.28660306 1107.16415925 421.06800347 1107.14403808 430.84942925 C1107.11741612 444.08072347 1107.10669009 457.31203021 1107.09503365 470.5433445 C1107.07627704 491.36226344 1107.03641792 512.1810871 1107 533 C1075.98 533 1044.96 533 1013 533 C1012.97421875 521.28628906 1012.9484375 509.57257813 1012.921875 497.50390625 C1012.89669445 490.06183247 1012.87051362 482.61978421 1012.83984375 475.17773438 C1012.79139916 463.37785039 1012.74691815 451.5780513 1012.72900391 439.77807617 C1012.71593475 431.18194083 1012.68883698 422.58597938 1012.64538693 413.98994201 C1012.62288972 409.44482312 1012.6070822 404.89991774 1012.60811615 400.35473824 C1012.60886978 396.06265118 1012.59064168 391.771034 1012.55883217 387.47906876 C1012.55042454 385.91721305 1012.54851976 384.35530406 1012.55419731 382.79343605 C1012.61098635 364.74452072 1009.54303754 346.82416539 996.8125 333.125 C980.10704603 317.74358707 958.40886869 314.62832897 936.62841797 314.73925781 C934.13614407 314.74995218 931.6445955 314.73932063 929.15234375 314.7265625 C907.27897555 314.70580849 888.39241176 318.44303251 871.0703125 332.57421875 C867.5150416 336.23518689 865.25269773 340.89955752 862.875 345.375 C862.54967285 345.96804932 862.2243457 346.56109863 861.88916016 347.17211914 C855.55486721 359.80685767 854.40024168 373.9232251 854.36230469 387.80102539 C854.3436422 389.39959162 854.32329575 390.99813891 854.30142212 392.59666443 C854.2475113 396.87647341 854.21673251 401.15615353 854.19056606 405.43620992 C854.15899758 409.93128968 854.10551746 414.42611169 854.05450439 418.92100525 C853.96146357 427.40600669 853.88771956 435.8910581 853.82115865 444.37630409 C853.72992876 455.8612844 853.60838137 467.34594304 853.48866272 478.8306551 C853.30122914 496.88694097 853.15386336 514.94332452 853 533 C821.98 533 790.96 533 759 533 C759 611.54 759 690.08 759 771 C508.53 771 258.06 771 0 771 C-0.185625 713.765625 -0.37125 656.53125 -0.5625 597.5625 C-0.65446655 571.85645874 -0.65446655 571.85645874 -0.74829102 545.63110352 C-1.26896857 363.74529645 -0.48248673 181.89749767 0 0 Z " fill="#029750" transform="translate(23,14)"/>
<path d="M0 0 C0.77270233 -0.00367584 1.54540466 -0.00735168 2.34152222 -0.01113892 C26.31205356 -0.07064441 51.52396111 2.69108389 74.3125 10.3125 C75.0432373 10.54807617 75.77397461 10.78365234 76.52685547 11.02636719 C118.13321796 24.48153899 156.8569468 49.83008238 177.5078125 89.44921875 C182.04181267 98.49246569 185.15749365 107.42625616 187.3125 117.3125 C187.4882959 118.07361084 187.6640918 118.83472168 187.84521484 119.61889648 C193.35820498 151.39779937 184.99490169 188.94229919 167.015625 215.62890625 C163.08018859 221.15967237 158.51549398 226.06404434 153.73681641 230.86914062 C152.4176792 232.20591457 151.13479636 233.57820376 149.85546875 234.953125 C118.97480209 267.5237784 72.27972698 279.58783098 29.3125 285.3125 C28.07677246 285.48595947 26.84104492 285.65941895 25.56787109 285.83813477 C21.28471251 286.3678437 17.05058493 286.49012617 12.73828125 286.515625 C11.94078461 286.52272995 11.14328796 286.5298349 10.32162476 286.53715515 C-32.039218 286.82865835 -73.82685755 280.29143723 -106.6875 251.3125 C-107.69188027 250.31689954 -108.69261679 249.31759075 -109.6875 248.3125 C-109.69780746 249.51913803 -109.70811493 250.72577606 -109.71873474 251.96897888 C-109.81842572 263.59421477 -109.92126183 275.21941959 -110.02683926 286.84460354 C-110.08096701 292.81476631 -110.13415218 298.78493369 -110.18481445 304.75512695 C-110.46171562 337.28175444 -110.96858394 369.79212069 -111.6875 402.3125 C-140.0675 402.3125 -168.4475 402.3125 -197.6875 402.3125 C-197.6875 271.9625 -197.6875 141.6125 -197.6875 7.3125 C-169.3075 7.3125 -140.9275 7.3125 -111.6875 7.3125 C-110.6975 20.6775 -110.6975 20.6775 -109.6875 34.3125 C-107.34591797 32.53939453 -107.34591797 32.53939453 -104.95703125 30.73046875 C-99.03284474 26.42688037 -92.89019311 22.94609697 -86.375 19.625 C-85.27196533 19.05974609 -84.16893066 18.49449219 -83.0324707 17.91210938 C-75.38596836 14.0497046 -67.9563239 10.62999549 -59.6875 8.3125 C-58.96884766 8.1072168 -58.25019531 7.90193359 -57.50976562 7.69042969 C-51.61093559 6.02971208 -45.67838732 4.60016506 -39.6875 3.3125 C-38.91180664 3.14443848 -38.13611328 2.97637695 -37.33691406 2.80322266 C-24.96072303 0.26539343 -12.58433299 0.02853519 0 0 Z " fill="#FDFDFD" transform="translate(2341.6875,268.6875)"/>
<path d="M0 0 C0.98049316 0.16628906 1.96098633 0.33257812 2.97119141 0.50390625 C46.41602933 7.94332673 90.32185565 23.08599919 125 51 C126.0209375 51.81726563 127.041875 52.63453125 128.09375 53.4765625 C141.62321189 64.51043881 153.75706512 76.8548068 164 91 C164.63131836 91.85682373 164.63131836 91.85682373 165.27539062 92.73095703 C184.08570133 118.49761536 194.68912546 149.97120905 192 182 C191.23768004 185.83898854 190.13704013 188.73383717 188 192 C187.53722656 192.721875 187.07445312 193.44375 186.59765625 194.1875 C179.3903122 203.77379625 168.22381736 205.41074766 157.05471646 207.00840293 C144.79061723 208.59453044 132.49670309 208.40459262 120.15275574 208.36076355 C117.38338505 208.36039946 114.61402517 208.36457962 111.84465772 208.36853105 C105.8588333 208.37470207 99.87309907 208.36990786 93.88728523 208.35761642 C84.98684065 208.33939126 76.08645203 208.33862006 67.18599219 208.34124239 C52.20864037 208.34516982 37.23132848 208.33521437 22.25398827 208.31719017 C7.43671661 208.29940453 -7.38053841 208.28788537 -22.19782066 208.28463173 C-23.12107043 208.28442551 -24.0443202 208.28421929 -24.99554724 208.28400682 C-29.68476905 208.28299174 -34.37399087 208.28208762 -39.06321272 208.2812262 C-72.22794412 208.27493447 -105.39265384 208.25474901 -138.55737305 208.22631836 C-170.76505417 208.19874011 -202.97272935 208.17750151 -235.18041992 208.16479492 C-236.17419317 208.16440034 -237.16796641 208.16400576 -238.19185399 208.16359923 C-248.17224968 208.15964348 -258.15264542 208.15581606 -268.1330412 208.15208265 C-288.46204141 208.14447517 -308.79104124 208.13601142 -329.12004089 208.12702942 C-330.05461892 208.12661755 -330.98919694 208.12620568 -331.95209551 208.12578133 C-394.30140602 208.09820579 -456.6507045 208.05067331 -519 208 C-519.14547716 204.10809917 -519.28771642 200.2160933 -519.42724609 196.32397461 C-519.49805356 194.3663144 -519.57125854 192.40874137 -519.64453125 190.45117188 C-520.02022728 179.90484747 -520.19693419 169.37220516 -519.78125 158.82421875 C-519.73613281 157.64794922 -519.69101562 156.47167969 -519.64453125 155.25976562 C-519.59683594 154.08091797 -519.54914062 152.90207031 -519.5 151.6875 C-519.45230469 150.45837891 -519.40460937 149.22925781 -519.35546875 147.96289062 C-519.23921484 144.97516512 -519.12069607 141.98754877 -519 139 C-506.70840442 138.84801633 -494.41673 138.70317626 -482.125 138.5625 C-480.68095102 138.54596815 -480.68095102 138.54596815 -479.20772934 138.52910233 C-437.24348394 138.0510712 -395.27833883 137.73365613 -353.3125 137.4375 C-352.52673238 137.43195052 -351.74096476 137.42640103 -350.93138599 137.42068338 C-330.62094544 137.2773038 -310.31048453 137.13701318 -290 137 C-289.75092896 136.43603516 -289.50185791 135.87207031 -289.24523926 135.29101562 C-288.09467675 132.69217308 -286.93800567 130.09609153 -285.78125 127.5 C-285.38969727 126.613125 -284.99814453 125.72625 -284.59472656 124.8125 C-271.81194156 96.1958949 -250.02872524 71.57309838 -225 53 C-224.17943115 52.3802832 -224.17943115 52.3802832 -223.34228516 51.74804688 C-186.96538784 24.33231417 -143.72353574 7.60079795 -99 0 C-97.75524902 -0.22647217 -97.75524902 -0.22647217 -96.48535156 -0.45751953 C-65.69659109 -5.87741717 -30.7363938 -5.59544456 0 0 Z " fill="#F9FBFA" transform="translate(542,225)"/>
<path d="M0 0 C1.08769684 -0.00217529 2.17539368 -0.00435059 3.29605103 -0.0065918 C21.06191848 -0.00256884 38.87577945 0.51392669 56.25 4.5625 C57.19270752 4.77608154 58.13541504 4.98966309 59.10668945 5.2097168 C103.15104308 15.45875759 151.98927579 34.87513805 177.58520508 74.62963867 C187.54299566 90.74496371 194.14009833 107.69477813 198.375 126.125 C198.63812988 127.24946533 198.90125977 128.37393066 199.17236328 129.5324707 C201.92271021 142.13468241 201.98757439 152.92134229 196.4375 164.6875 C191.55429616 170.07154526 185.32859591 172.60328606 178.11554527 173.00585651 C175.90528086 173.03393213 173.6945666 173.03510704 171.48422241 173.01423645 C170.25877956 173.02259213 169.03333671 173.0309478 167.77075922 173.03955668 C164.39520121 173.0576151 161.02102077 173.05355514 157.64553285 173.0398711 C153.99599045 173.03056508 150.34658575 173.05018205 146.69708252 173.06619263 C140.38277421 173.08997913 134.06866104 173.09565489 127.75431442 173.08884621 C118.62500208 173.07902864 109.49590542 173.0968097 100.36662801 173.12121352 C85.55317038 173.16006754 70.73977463 173.17676395 55.92626953 173.17944336 C41.5408206 173.18209298 27.15544393 173.19522938 12.77001953 173.22241211 C11.43877336 173.22492218 11.43877336 173.22492218 10.08063333 173.22748295 C5.6280861 173.23594274 1.17553929 173.2446081 -3.27700734 173.25337565 C-40.18466078 173.32578511 -77.09228014 173.36219999 -114 173.375 C-112.91819641 175.75390933 -111.83009045 178.12959277 -110.73828125 180.50390625 C-110.28539734 181.50242615 -110.28539734 181.50242615 -109.82336426 182.52111816 C-99.19849096 205.54050192 -76.6279065 215.89690915 -54 224.375 C-43.18545329 228.11304356 -32.38226629 230.25628583 -21 231.375 C-20.06800781 231.48585938 -19.13601563 231.59671875 -18.17578125 231.7109375 C-7.83447048 232.80260226 2.61696815 232.55880508 13 232.375 C14.06686035 232.35614746 14.06686035 232.35614746 15.15527344 232.33691406 C26.05568907 232.06674696 36.43674144 229.88853158 47 227.375 C48.05445313 227.12621094 49.10890625 226.87742187 50.1953125 226.62109375 C52.82821648 225.94943457 55.41037983 225.19735266 58 224.375 C58.91652344 224.08625 59.83304688 223.7975 60.77734375 223.5 C66.04285937 221.6567307 70.44761667 219.91124514 74.85107422 216.47949219 C93.24201917 203.05084801 115.44866886 205.96350234 137.10003662 206.49273682 C142.49390592 206.60987231 147.88837659 206.65069203 153.28320312 206.70117188 C161.11965521 206.78792256 168.95529253 206.89454427 176.7902832 207.07104492 C178.02344772 207.09393082 178.02344772 207.09393082 179.28152466 207.11727905 C184.88326023 207.25826023 184.88326023 207.25826023 186 208.375 C185.71009753 214.32915078 183.91222112 217.72287113 180.4375 222.3125 C179.99003418 222.92150146 179.54256836 223.53050293 179.08154297 224.15795898 C175.96187521 228.32102539 172.62122192 232.09842746 168.7890625 235.62890625 C166.88529347 237.41032077 166.88529347 237.41032077 165.07421875 239.828125 C148.87890716 259.71389365 120.13596794 271.14687508 96.79907227 279.37451172 C94.96093215 280.03152857 93.13018096 280.70967323 91.30834961 281.41064453 C84.18244595 284.13359818 77.01619853 285.90909201 69.5625 287.5 C68.42490234 287.75136719 67.28730469 288.00273438 66.11523438 288.26171875 C45.75530694 292.69839432 25.75724324 294.7931145 4.9375 294.75 C3.98622223 294.74978851 3.03494446 294.74957703 2.05484009 294.74935913 C-23.71256907 294.69266605 -49.02206993 291.93673068 -74 285.375 C-74.9182959 285.13442871 -75.8365918 284.89385742 -76.78271484 284.64599609 C-108.71159707 276.05761833 -139.98641627 262.0766618 -164.125 239.08984375 C-166.91474013 236.45551034 -169.79036708 233.95237233 -172.6875 231.4375 C-191.15622378 214.55862332 -204.12210099 187.3584211 -206 162.375 C-206.48909477 149.41177547 -206.97893597 136.07377848 -204 123.375 C-203.74347656 122.20710938 -203.48695312 121.03921875 -203.22265625 119.8359375 C-197.8362021 97.50411473 -186.60389842 78.93779903 -170.4140625 62.796875 C-169.02806573 61.40639281 -167.65547879 60.00156792 -166.32421875 58.55859375 C-137.48310062 27.79014553 -94.02904439 13.11470443 -54 4.375 C-52.33759277 4.00834229 -52.33759277 4.00834229 -50.64160156 3.63427734 C-33.85922548 0.13293712 -17.07278553 0.0183715 0 0 Z " fill="#FDFDFD" transform="translate(1631,262.625)"/>
<path d="M0 0 C1.62615234 0.80824219 1.62615234 0.80824219 3.28515625 1.6328125 C16.62224057 8.46826692 27.90301204 17.28448572 38.62353516 27.67919922 C39.78213513 28.79094555 40.97177161 29.8702171 42.16796875 30.94140625 C57.72292988 45.27762816 67.68477264 66.09991139 74 86 C74.31759277 86.99942627 74.31759277 86.99942627 74.64160156 88.01904297 C77.6356766 97.92890941 78.44222013 107.73404218 78.625 118.0625 C78.66028809 119.20436768 78.69557617 120.34623535 78.73193359 121.52270508 C78.71944493 129.25375305 77.48347826 134.40698058 72 140 C64.80322635 145.01683525 58.05486426 145.72016247 49.48422241 145.63923645 C48.25877956 145.64759213 47.03333671 145.6559478 45.77075922 145.66455668 C42.39520121 145.6826151 39.02102077 145.67855514 35.64553285 145.6648711 C31.99599045 145.65556508 28.34658575 145.67518205 24.69708252 145.69119263 C18.38277421 145.71497913 12.06866104 145.72065489 5.75431442 145.71384621 C-3.37499792 145.70402864 -12.50409458 145.7218097 -21.63337199 145.74621352 C-36.44682962 145.78506754 -51.26022537 145.80176395 -66.07373047 145.80444336 C-80.4591794 145.80709298 -94.84455607 145.82022938 -109.22998047 145.84741211 C-110.56122664 145.84992218 -110.56122664 145.84992218 -111.91936667 145.85248295 C-116.3719139 145.86094274 -120.82446071 145.8696081 -125.27700734 145.87837565 C-162.18466078 145.95078511 -199.09228014 145.98719999 -236 146 C-235.21621684 148.09224381 -234.42720758 150.18253036 -233.63598633 152.27197266 C-233.19716629 153.43620758 -232.75834625 154.6004425 -232.30622864 155.79995728 C-224.28428591 175.45238161 -203.05473749 186.04727236 -184.60595703 193.97021484 C-153.89095825 206.10773263 -115.22712156 209.820428 -83 202 C-82.23478027 201.82307617 -81.46956055 201.64615234 -80.68115234 201.46386719 C-56.6317981 195.91398691 -56.6317981 195.91398691 -35.54945183 183.77150536 C-30.66649026 179.76217072 -26.87791027 179.29595088 -20.68408203 179.41650391 C-19.3243351 179.41299927 -19.3243351 179.41299927 -17.93711853 179.40942383 C-14.96008479 179.40781715 -11.98462461 179.44175052 -9.0078125 179.4765625 C-6.93513549 179.48335475 -4.86245074 179.48807524 -2.7897644 179.49081421 C1.54273053 179.50147117 5.87470669 179.52812211 10.20703125 179.56787109 C15.77254233 179.61892802 21.33775647 179.64391567 26.90347099 179.65880775 C32.20391797 179.67355858 37.50429456 179.69879952 42.8046875 179.7265625 C44.32944513 179.73392866 44.32944513 179.73392866 45.88500595 179.74144363 C48.74356621 179.75764102 51.60196418 179.78104001 54.46044922 179.80712891 C55.31547531 179.81138885 56.1705014 179.8156488 57.05143738 179.82003784 C62.88487618 179.88487618 62.88487618 179.88487618 64 181 C63.70556636 186.64331143 61.96813897 190.27632608 58.625 194.6875 C58.17946777 195.28981445 57.73393555 195.89212891 57.27490234 196.51269531 C41.87366954 216.95814074 22.02940092 231.27961386 -1 242 C-1.60295898 242.28939453 -2.20591797 242.57878906 -2.82714844 242.87695312 C-39.68384726 260.53117111 -78.91383535 265.64040871 -119.375 265.5 C-121.33809616 265.49835342 -121.33809616 265.49835342 -123.34085083 265.49667358 C-144.31167341 265.46094956 -164.45345945 264.23720106 -185 260 C-186.01255859 259.80245117 -187.02511719 259.60490234 -188.06835938 259.40136719 C-233.86834032 250.32601162 -280.57825274 228.36150346 -307.54296875 188.82421875 C-321.23829806 167.8685849 -328.4347874 145.39264792 -328.1875 120.3125 C-328.18685547 119.05888672 -328.18621094 117.80527344 -328.18554688 116.51367188 C-328.03170337 84.01850413 -313.99434936 58.24575199 -292 35 C-291.23171875 34.17886719 -290.4634375 33.35773438 -289.671875 32.51171875 C-274.76370174 17.05050036 -256.27053282 6.11506377 -236.99316406 -3.03955078 C-234.96621258 -4.0162812 -232.96363625 -5.0331619 -230.9609375 -6.05859375 C-220.8422439 -11.15452859 -210.61446915 -14.51683197 -199.64990234 -17.32080078 C-197.11039128 -17.9717055 -194.58103395 -18.65398955 -192.05078125 -19.33984375 C-130.397509 -35.56406878 -56.85105052 -29.66758941 0 0 Z " fill="#FDFDFD" transform="translate(3671,290)"/>
<path d="M0 0 C2.85375568 0.01612982 5.7061001 0.00000622 8.55981445 -0.01904297 C21.04843351 -0.0335181 33.01146411 1.12826109 45.28833008 3.39111328 C46.38363037 3.58979004 47.47893066 3.7884668 48.60742188 3.99316406 C83.42453184 10.74182803 114.78305064 26.01400474 135.12817383 56.03173828 C137.90551684 60.35093356 140.30612552 64.6549442 142.28833008 69.39111328 C142.58223633 70.09107422 142.87614258 70.79103516 143.17895508 71.51220703 C147.90195015 84.1300125 147.5732489 97.79581438 147.51538086 111.0546875 C147.51481544 112.88924147 147.51513585 114.7237959 147.51626587 116.55834961 C147.51683529 121.49542018 147.50514809 126.43239184 147.49111795 131.3694396 C147.47854154 136.54504477 147.47743468 141.72065266 147.47506714 146.89627075 C147.46887256 156.67771634 147.45248933 166.45911676 147.43236816 176.24054253 C147.4057462 189.47183675 147.39502016 202.70314349 147.38336372 215.93445778 C147.36460711 236.75337672 147.324748 257.57220038 147.28833008 278.39111328 C116.26833008 278.39111328 85.24833008 278.39111328 53.28833008 278.39111328 C53.26254883 266.67740234 53.23676758 254.96369141 53.21020508 242.89501953 C53.18502453 235.45294575 53.1588437 228.0108975 53.12817383 220.56884766 C53.07972924 208.76896367 53.03524823 196.96916458 53.01733398 185.16918945 C53.00426483 176.57305411 52.97716706 167.97709266 52.93371701 159.3810553 C52.9112198 154.8359364 52.89541228 150.29103102 52.89644623 145.74585152 C52.89719986 141.45376446 52.87897176 137.16214728 52.84716225 132.87018204 C52.83875461 131.30832633 52.83684983 129.74641735 52.84252739 128.18454933 C52.89931642 110.135634 49.83136761 92.21527867 37.10083008 78.51611328 C20.3953761 63.13470035 -1.30280123 60.01944226 -23.08325195 60.13037109 C-25.57552585 60.14106546 -28.06707442 60.13043391 -30.55932617 60.11767578 C-52.43269437 60.09692177 -71.31925816 63.83414579 -88.64135742 77.96533203 C-92.19662832 81.62630017 -94.45897219 86.2906708 -96.83666992 90.76611328 C-97.16199707 91.3591626 -97.48732422 91.95221191 -97.82250977 92.56323242 C-104.15680271 105.19797095 -105.31142824 119.31433838 -105.34936523 133.19213867 C-105.36802772 134.7907049 -105.38837417 136.3892522 -105.4102478 137.98777771 C-105.46415862 142.26758669 -105.49493741 146.54726681 -105.52110386 150.8273232 C-105.55267234 155.32240296 -105.60615246 159.81722497 -105.65716553 164.31211853 C-105.75020635 172.79711997 -105.82395036 181.28217138 -105.89051127 189.76741737 C-105.98174116 201.25239769 -106.10328855 212.73705632 -106.2230072 224.22176838 C-106.41044078 242.27805425 -106.55780656 260.3344378 -106.71166992 278.39111328 C-137.73166992 278.39111328 -168.75166992 278.39111328 -200.71166992 278.39111328 C-200.71166992 188.96111328 -200.71166992 99.53111328 -200.71166992 7.39111328 C-169.69166992 7.39111328 -138.67166992 7.39111328 -106.71166992 7.39111328 C-105.72166992 21.25111328 -105.72166992 21.25111328 -104.71166992 35.39111328 C-102.07166992 33.08111328 -99.43166992 30.77111328 -96.71166992 28.39111328 C-83.13296429 18.33091502 -67.40182454 10.7101733 -51.21166992 5.95361328 C-50.09586548 5.61970581 -50.09586548 5.61970581 -48.95751953 5.27905273 C-32.9771653 0.94836507 -16.47799222 -0.11023959 0 0 Z " fill="#FDFDFD" transform="translate(982.711669921875,268.60888671875)"/>
<path d="M0 0 C50.39572432 -1.21472068 103.95041408 9.03109024 142.63183594 43.43359375 C146.07742121 46.74857019 148.60367394 49.91182055 150.98339844 54.078125 C140.9642206 59.76533947 130.8725884 65.21021743 120.54370117 70.31469727 C114.58605188 73.26314051 108.67659923 76.29153355 102.79589844 79.390625 C102.04252197 79.78701172 101.28914551 80.18339844 100.51293945 80.59179688 C99.78776123 80.97529297 99.06258301 81.35878906 98.31542969 81.75390625 C97.60467285 82.12725098 96.89391602 82.5005957 96.16162109 82.88525391 C94.63330531 83.72221321 93.12903104 84.60387583 91.64501953 85.51708984 C85.7967754 89.06122108 85.7967754 89.06122108 81.78808594 89.14453125 C78.42622577 87.86627522 75.97722399 86.18773577 73.10839844 84.015625 C58.66919388 73.55118695 40.74498302 65.49019204 22.98339844 63.078125 C22.2834375 62.96855469 21.58347656 62.85898437 20.86230469 62.74609375 C18.23345558 62.40438893 15.63108193 62.22447936 12.98339844 62.078125 C12.32146484 62.03880859 11.65953125 61.99949219 10.97753906 61.95898438 C-6.37980191 61.06145316 -27.62439038 62.27695286 -42.01660156 73.078125 C-42.66757813 73.48160156 -43.31855469 73.88507813 -43.98925781 74.30078125 C-46.00628881 75.80321664 -46.93766183 76.79305345 -48.01660156 79.078125 C-48.80944067 84.78253515 -49.2260875 90.48796435 -46.74707031 95.796875 C-37.24215477 108.32705711 -16.82822776 112.93934318 -2.06225586 114.99780273 C0.01067494 115.25951698 2.08454346 115.51388618 4.15917969 115.76171875 C5.28623825 115.90335953 6.41329681 116.04500031 7.57450867 116.19093323 C11.14748371 116.63942659 14.72151676 117.07849483 18.29589844 117.515625 C34.52802552 119.5092405 50.64281451 121.74323649 66.73303223 124.67977905 C69.70402743 125.2056863 72.68421658 125.65134813 75.67089844 126.078125 C101.59616615 130.03513954 123.50996907 135.90494544 143.41943359 153.69921875 C144.89723241 155.0021547 146.41399961 156.26050266 147.93261719 157.515625 C159.38259613 167.22495163 167.91378805 180.13854717 169.17626953 195.41137695 C169.74849965 212.49331287 168.20177865 226.81141277 157.98339844 241.078125 C157.15775391 242.28662109 157.15775391 242.28662109 156.31542969 243.51953125 C130.67986566 278.44730398 78.98984904 286.11897615 39.45214844 292.28125 C-19.11116423 301.04420695 -94.68503896 296.83521891 -144.08691406 260.40625 C-149.51355519 256.09387919 -154.85547365 251.70631035 -160.01660156 247.078125 C-160.98597656 246.22734375 -161.95535156 245.3765625 -162.95410156 244.5 C-165.01660156 242.078125 -165.01660156 242.078125 -164.94335938 240.10742188 C-163.63580309 237.24430073 -162.03208686 236.62140101 -159.25097656 235.1875 C-158.22931396 234.6505249 -157.20765137 234.1135498 -156.1550293 233.56030273 C-154.47775757 232.70287476 -154.47775757 232.70287476 -152.76660156 231.828125 C-151.00797497 230.90643442 -149.24937691 229.98468608 -147.49217224 229.06028748 C-146.2585731 228.41174816 -145.02414903 227.76477583 -143.78895569 227.11927795 C-136.61480834 223.3648706 -129.53563407 219.44105295 -122.45410156 215.515625 C-121.23707046 214.84260833 -120.01995011 214.169753 -118.80273438 213.49707031 C-117.65514648 212.8625293 -116.50755859 212.22798828 -115.32519531 211.57421875 C-113.69493408 210.68065674 -113.69493408 210.68065674 -112.03173828 209.76904297 C-110.14086477 208.70862273 -108.26865918 207.61339369 -106.42724609 206.46923828 C-102.87185902 204.28887108 -100.71188064 203.10965867 -96.48535156 202.91796875 C-91.8979585 204.45226576 -88.42370918 206.83479274 -84.51660156 209.640625 C-63.32924229 224.27967835 -41.45052116 233.1454621 -15.45019531 233.28125 C-14.13354637 233.28980011 -14.13354637 233.28980011 -12.79029846 233.29852295 C-10.94411394 233.30789876 -9.09791324 233.31447706 -7.25170898 233.31835938 C-4.4848773 233.32801757 -1.71880517 233.35909334 1.04785156 233.390625 C20.44493665 233.50653887 38.3013058 231.04930763 54.95996094 220.3125 C56.98339844 219.078125 56.98339844 219.078125 59.98339844 218.078125 C63.05183007 212.96407229 63.68632367 207.92244622 62.98339844 202.078125 C57.47646649 190.84398382 45.12043265 185.99663266 33.98339844 182.078125 C18.61635817 177.26398202 2.33852216 175.85034443 -13.58740234 173.95898438 C-26.07111149 172.47528584 -38.49070884 170.73406011 -50.90869141 168.77734375 C-58.69714629 167.55482631 -66.48351355 166.48955375 -74.31152344 165.5625 C-102.6666472 161.85555709 -123.43163072 152.27795713 -141.39160156 129.703125 C-153.31205289 113.66469958 -156.30240785 98.85009046 -155.01660156 79.078125 C-154.25205989 74.6889189 -152.9754639 71.06539508 -151.01660156 67.078125 C-150.51902344 66.005625 -150.02144531 64.933125 -149.50878906 63.828125 C-145.69587208 56.16682203 -141.09984883 50.06857697 -135.01660156 44.078125 C-134.31792969 43.38074219 -133.61925781 42.68335938 -132.89941406 41.96484375 C-99.35663343 10.3265067 -44.10601367 1.14227293 0 0 Z " fill="#FDFCFC" transform="translate(3152.0166015625,264.921875)"/>
<path d="M0 0 C31.02 0 62.04 0 94 0 C94 24.42 94 48.84 94 74 C126.34 74 158.68 74 192 74 C192 92.48 192 110.96 192 130 C159.66 130 127.32 130 94 130 C94.0615795 153.29698851 94.0615795 153.29698851 94.16015625 176.59375 C94.20859637 186.10253646 94.25307904 195.61121766 94.27099609 205.12011719 C94.28406745 212.04731654 94.31117049 218.97430021 94.35461307 225.90137804 C94.3771057 229.56388905 94.3929181 233.22613527 94.39188385 236.88872147 C94.39098921 240.99333471 94.42144411 245.09717648 94.45410156 249.20166016 C94.4490712 250.39497452 94.44404083 251.58828888 94.43885803 252.81776428 C94.57178765 263.69388989 96.385864 276.62249304 104 285 C115.18400625 295.0351251 129.38324875 295.67778289 143.60668945 295.57641602 C146.27100997 295.56271338 148.93168592 295.5965285 151.59570312 295.63476562 C166.15176999 295.61876409 177.13318455 293.09725322 192 290 C192 308.15 192 326.3 192 345 C179.61442797 349.50384438 179.61442797 349.50384438 175.1328125 350.23046875 C174.14410156 350.39353516 173.15539063 350.55660156 172.13671875 350.72460938 C171.14285156 350.87736328 170.14898438 351.03011719 169.125 351.1875 C167.64580078 351.4340332 167.64580078 351.4340332 166.13671875 351.68554688 C154.69716006 353.52271918 143.27468523 354.15560676 131.69921875 354.16796875 C130.57916946 354.17129715 129.45912018 354.17462555 128.30513 354.17805481 C125.95480759 354.18307684 123.60447816 354.18546461 121.25415039 354.18530273 C117.70642069 354.18748834 114.15900304 354.20569303 110.61132812 354.22460938 C98.57623486 354.25450663 86.88360094 354.01312666 75 352 C74.35034775 351.89050522 73.7006955 351.78101044 73.03135681 351.66819763 C48.99901812 347.57101341 26.12648335 338.54459197 11.5625 318.1875 C1.08191656 301.38806167 -0.16613068 282.51997865 -0.11352539 263.27880859 C-0.11324278 261.81922406 -0.1134027 260.35963938 -0.1139679 258.90005493 C-0.11425297 254.96687557 -0.10840325 251.03372716 -0.10139394 247.10055494 C-0.095112 242.97927987 -0.09455279 238.85800397 -0.09336853 234.73672485 C-0.09026942 226.94553829 -0.08207529 219.15436588 -0.07201904 211.36318552 C-0.06081365 202.487671 -0.05533633 193.61215577 -0.05032361 184.73663592 C-0.0398914 166.49108098 -0.0215637 148.24554542 0 130 C-20.46 130 -40.92 130 -62 130 C-62 111.52 -62 93.04 -62 74 C-41.54 74 -21.08 74 0 74 C0 49.58 0 25.16 0 0 Z " fill="#FDFDFD" transform="translate(1216,201)"/>
<path d="M0 0 C1.21864746 0.00201416 2.43729492 0.00402832 3.69287109 0.00610352 C25.17493618 0.24371809 25.17493618 0.24371809 33.3125 4.3125 C33.3125 25.7625 33.3125 47.2125 33.3125 69.3125 C27.3725 68.6525 21.4325 67.9925 15.3125 67.3125 C11.30234962 67.14786313 7.36722132 67.02947983 3.36328125 67.046875 C2.33671921 67.04496155 1.31015717 67.0430481 0.25248718 67.04107666 C-1.88384247 67.03973517 -4.02018086 67.0432862 -6.15649414 67.05175781 C-9.38121176 67.06252073 -12.6053768 67.05177454 -15.83007812 67.0390625 C-42.33174147 67.01947451 -69.20825358 70.89492268 -89.6875 89.3125 C-90.55375 90.075625 -91.42 90.83875 -92.3125 91.625 C-107.60688643 108.9318057 -109.96815513 129.77878004 -110.00634766 152.07226562 C-110.0156823 153.46377624 -110.02585597 154.85528142 -110.03678894 156.2467804 C-110.06370555 159.96677731 -110.07912211 163.68673726 -110.09221697 167.40680504 C-110.10801856 171.31588279 -110.13475285 175.22488675 -110.1602478 179.13391113 C-110.20673803 186.51049613 -110.24362452 193.88709548 -110.27692068 201.26375055 C-110.32256355 211.24999119 -110.38332598 221.23613965 -110.44316864 231.22230339 C-110.53683947 246.91898902 -110.61055492 262.61570282 -110.6875 278.3125 C-141.7075 278.3125 -172.7275 278.3125 -204.6875 278.3125 C-204.6875 188.8825 -204.6875 99.4525 -204.6875 7.3125 C-173.6675 7.3125 -142.6475 7.3125 -110.6875 7.3125 C-110.3575 16.2225 -110.0275 25.1325 -109.6875 34.3125 C-109.1925 40.7475 -109.1925 40.7475 -108.6875 47.3125 C-106.4909375 45.20875 -106.4909375 45.20875 -104.25 43.0625 C-76.39832873 17.44578673 -38.08684011 -0.17089912 0 0 Z " fill="#FDFDFD" transform="translate(2071.6875,269.6875)"/>
<path d="M0 0 C0 21.45 0 42.9 0 65 C-6.93 64.34 -13.86 63.68 -21 63 C-25.28728539 62.83862354 -29.50434757 62.71649967 -33.78515625 62.734375 C-34.85898056 62.73246155 -35.93280487 62.7305481 -37.03916931 62.72857666 C-39.26431519 62.72723861 -41.48946954 62.73076433 -43.71459961 62.73925781 C-47.09051038 62.75008988 -50.46590092 62.73923094 -53.84179688 62.7265625 C-56.03125115 62.72788266 -58.22070511 62.73044207 -60.41015625 62.734375 C-61.39790543 62.73032654 -62.3856546 62.72627808 -63.40333557 62.72210693 C-73.62739002 62.78978619 -83.39808088 64.41886906 -93.0625 67.75 C-93.83271484 68.01312988 -94.60292969 68.27625977 -95.39648438 68.54736328 C-114.46498941 75.26777049 -129.21969356 88.01419764 -138.20605469 106.18164062 C-140.27296451 110.91544885 -141.18399366 115.92862178 -142 121 C-142.17148528 121.92060274 -142.34297056 122.84120548 -142.51965237 123.78970528 C-143.00148355 127.009915 -143.13874774 130.04783678 -143.15821838 133.30221558 C-143.1680072 134.54734421 -143.17779602 135.79247284 -143.18788147 137.07533264 C-143.19378444 138.4419857 -143.19959496 139.80863916 -143.20532227 141.17529297 C-143.21490963 142.62443821 -143.22492021 144.07358071 -143.23532104 145.52272034 C-143.26228317 149.44577601 -143.28333961 153.36884361 -143.30332303 157.29194021 C-143.3252364 161.39591216 -143.35259884 165.49984773 -143.37937927 169.60379028 C-143.42923396 177.37029215 -143.4741995 185.1368143 -143.51740164 192.90335572 C-143.57608316 203.40174909 -143.6423311 213.90009455 -143.70815182 224.39844513 C-143.81161346 240.93226444 -143.90497773 257.46612505 -144 274 C-175.02 274 -206.04 274 -238 274 C-238 184.57 -238 95.14 -238 3 C-206.98 3 -175.96 3 -144 3 C-143.34 16.2 -142.68 29.4 -142 43 C-139.36 40.36 -136.72 37.72 -134 35 C-131.45978027 32.98470626 -128.96927848 31.0887117 -126.3125 29.25 C-125.59263916 28.74831299 -124.87277832 28.24662598 -124.13110352 27.72973633 C-106.17032419 15.44701637 -87.18236085 5.28991434 -66 0 C-64.69102911 -0.37498811 -63.38244886 -0.75134191 -62.07421875 -1.12890625 C-42.67612582 -6.41229246 -19.20215642 -6.40071881 0 0 Z " fill="#FDFDFD" transform="translate(2810,274)"/>
<path d="M0 0 C13.33459336 12.5708473 23.91315976 31.05449074 24.63671875 49.63671875 C24.656223 51.3631755 24.6596581 53.08987579 24.6484375 54.81640625 C24.64279785 55.73510498 24.6371582 56.65380371 24.63134766 57.6003418 C24.29571655 76.64325306 18.44388369 97.30539698 5.0234375 111.37890625 C2.3359375 113.69140625 2.3359375 113.69140625 0.3359375 113.69140625 C-0.00050781 114.54992187 -0.00050781 114.54992187 -0.34375 115.42578125 C-7.80610662 128.23100858 -30.46657638 135.75117447 -43.6640625 139.69140625 C-55.33180279 142.62250525 -66.59922891 143.13468311 -78.58349609 143.02758789 C-81.4244397 143.00381943 -84.26444948 143.00707622 -87.10546875 143.01367188 C-96.45817901 142.99938763 -105.50275846 142.80190928 -114.6640625 140.69140625 C-115.80359375 140.43101562 -116.943125 140.170625 -118.1171875 139.90234375 C-142.51131885 132.61136036 -163.79940736 117.70455275 -176.5390625 95.41015625 C-186.37187041 76.89170136 -188.69187595 54.86158759 -182.6640625 34.69140625 C-179.38957461 24.85455001 -175.34310936 15.70626248 -168.6640625 7.69140625 C-167.46136719 6.22960937 -167.46136719 6.22960937 -166.234375 4.73828125 C-151.25127071 -12.84178358 -130.82324151 -21.59011678 -108.6640625 -26.30859375 C-107.53097656 -26.55480469 -106.39789062 -26.80101562 -105.23046875 -27.0546875 C-68.0448227 -33.65434316 -28.60819473 -24.79097227 0 0 Z " fill="#231F20" transform="translate(2414.6640625,351.30859375)"/>
<path d="M0 0 C31.35 0 62.7 0 95 0 C95 90.42 95 180.84 95 274 C63.65 274 32.3 274 0 274 C0 183.58 0 93.16 0 0 Z " fill="#FCFDFC" transform="translate(2850,276)"/>
<path d="M0 0 C0.78474701 -0.00067474 1.56949402 -0.00134949 2.37802124 -0.00204468 C16.32014963 0.01684733 29.92668495 0.87476161 43.6875 3.25 C44.63270508 3.41097168 45.57791016 3.57194336 46.55175781 3.73779297 C69.62838313 7.8358426 91.68175707 15.96010032 112.6875 26.25 C113.43854004 26.61593262 114.18958008 26.98186523 114.96337891 27.35888672 C137.61445589 38.52421629 161.59246646 55.69423082 176.6875 76.25 C176.6875 77.24 176.6875 78.23 176.6875 79.25 C177.54794922 79.55744141 177.54794922 79.55744141 178.42578125 79.87109375 C181.50058952 81.74571779 183.02722351 84.31352778 184.875 87.3125 C185.25938232 87.92665771 185.64376465 88.54081543 186.03979492 89.17358398 C194.73492034 103.28528702 202.90443259 117.21292375 203.125 134.1875 C203.13539307 134.89777344 203.14578613 135.60804688 203.15649414 136.33984375 C203.05075644 142.50034114 201.35013044 146.46267227 197.1875 150.9375 C188.22543797 157.87083655 174.45977832 157.40086266 163.68235207 157.37584114 C162.04350087 157.3780213 162.04350087 157.3780213 160.37154156 157.38024551 C156.70305351 157.38390082 153.03460714 157.38042123 149.36611938 157.37698364 C146.71251726 157.37813564 144.05891803 157.37968265 141.40531671 157.38171089 C135.63212757 157.385321 129.85894778 157.38521397 124.08575821 157.38266373 C115.50114875 157.37888186 106.91654719 157.38081463 98.33193778 157.38387203 C83.00169827 157.38913865 67.67146293 157.38868113 52.34122303 157.38579312 C38.92931847 157.38327884 25.51741545 157.38262028 12.10551071 157.38381577 C11.21631625 157.38389215 10.32712178 157.38396854 9.41098203 157.38404724 C5.80163487 157.38435856 2.19228771 157.38467696 -1.41705945 157.385007 C-35.27758823 157.38806632 -69.13811435 157.38529174 -102.99864271 157.3799101 C-133.10212391 157.375162 -163.20560087 157.37559115 -193.30908203 157.38037109 C-227.11623151 157.38572116 -260.92337863 157.38785182 -294.73052847 157.38475883 C-298.33148742 157.3844381 -301.93244636 157.38412526 -305.5334053 157.38381577 C-306.42008106 157.38373669 -307.30675682 157.38365761 -308.22030155 157.38357614 C-321.63012818 157.38243702 -335.03995311 157.38377194 -348.44977951 157.38629532 C-363.68739108 157.3891483 -378.92499782 157.38845306 -394.16260879 157.38301457 C-402.69833063 157.38006887 -411.23404204 157.37990016 -419.76976362 157.38366075 C-425.46170599 157.38589272 -431.15363995 157.38452657 -436.84558107 157.38015598 C-440.09478449 157.37776322 -443.34396275 157.37753429 -446.59316628 157.38056196 C-450.08293101 157.38356643 -453.57263732 157.38052092 -457.06239891 157.37584114 C-458.08484788 157.37818231 -459.10729684 157.38052347 -460.16072911 157.38293558 C-461.08342774 157.38043207 -462.00612637 157.37792855 -462.95678556 157.37534916 C-463.75580017 157.3752814 -464.55481477 157.37521365 -465.37804195 157.37514383 C-467.3125 157.25 -467.3125 157.25 -469.3125 156.25 C-469.3125 151.96 -469.3125 147.67 -469.3125 143.25 C-467.97607395 143.24978263 -466.63964791 143.24956526 -465.2627241 143.24934131 C-406.34187523 143.23943009 -347.42103021 143.22331422 -288.50019836 143.17570496 C-287.16135798 143.17462578 -287.16135798 143.17462578 -285.79547032 143.1735248 C-266.39597907 143.15785071 -246.99648893 143.14106816 -227.59699963 143.12314438 C-218.08297715 143.11436082 -208.56895446 143.10582211 -199.05493164 143.09741211 C-198.10819095 143.09657106 -197.16145026 143.09573001 -196.18602046 143.09486348 C-165.52017426 143.06773584 -134.85434823 143.05676437 -104.18849096 143.05420476 C-72.66545609 143.05148801 -41.14247223 143.03240484 -9.61946106 142.99283885 C-5.16322155 142.98725322 -0.70698183 142.98185396 3.74925804 142.97656822 C4.62627756 142.97552219 5.50329708 142.97447615 6.40689294 142.97339842 C20.50314543 142.95706424 34.59934673 142.95789379 48.6956046 142.96520283 C62.88004494 142.97218908 77.06437933 142.96094793 91.24879126 142.9313371 C99.66766961 142.91430968 108.08628606 142.91102187 116.5051663 142.92782579 C122.14123135 142.93769323 127.77708348 142.92921604 133.41311005 142.90633952 C136.61674637 142.89384592 139.81976393 142.89164566 143.02340571 142.90637074 C157.79728627 142.96893156 170.58221919 141.66351787 184.6875 137.25 C185.3475 137.25 186.0075 137.25 186.6875 137.25 C188.44958731 119.72702063 178.17616696 103.30950569 167.6875 89.9375 C164.21342721 85.77549201 160.60992068 81.72957529 156.94140625 77.73828125 C155.49623689 76.14283432 154.08359331 74.51694099 152.71484375 72.85546875 C135.5957754 52.43792866 109.24299872 39.41137873 84.6875 30.25 C82.84091797 29.55003906 82.84091797 29.55003906 80.95703125 28.8359375 C73.81100261 26.29547367 66.56228764 24.37133185 59.1875 22.625 C58.38916748 22.43075439 57.59083496 22.23650879 56.76831055 22.03637695 C39.09512892 18.04751464 21.24358358 16.747959 3.17089844 16.85888672 C0.05619812 16.87503267 -3.05721227 16.85888322 -6.171875 16.83984375 C-24.35546474 16.81908398 -41.83091197 18.9274882 -59.4375 23.5 C-60.6241626 23.80446045 -61.8108252 24.1089209 -63.03344727 24.42260742 C-108.92637021 36.50296555 -151.40649857 62.50114385 -175.8046875 103.98828125 C-176.43419312 105.04039795 -176.43419312 105.04039795 -177.07641602 106.11376953 C-177.91843735 107.56897132 -178.71458924 109.05146108 -179.46850586 110.55419922 C-180.61085648 112.69850777 -181.6454477 114.48090077 -183.3125 116.25 C-186.41878335 116.8937893 -188.10672648 117.0503832 -191.125 116.75 C-191.81787109 116.71390625 -192.51074219 116.6778125 -193.22460938 116.640625 C-194.92298102 116.54692174 -196.61847857 116.40342081 -198.3125 116.25 C-196.50788483 109.30232246 -194.08820368 103.29959041 -190.4375 97.125 C-189.95772705 96.30805664 -189.4779541 95.49111328 -188.98364258 94.64941406 C-171.9793761 66.47388299 -146.03413753 42.99794331 -117.3125 27.25 C-116.7246875 26.92467285 -116.136875 26.5993457 -115.53125 26.26416016 C-80.64647101 7.39692635 -39.21827364 0.03069985 0 0 Z " fill="#079753" transform="translate(491.3125,247.75)"/>
<path d="M0 0 C1.6875 2.05859375 1.6875 2.05859375 3 4.4375 C3.49886719 5.324375 3.99773437 6.21125 4.51171875 7.125 C6.01677496 10.03240518 7.41358084 12.97780327 8.8125 15.9375 C12.01555815 22.43513224 16.15300781 27.64778387 21 33 C21.75023437 33.83273437 22.50046875 34.66546875 23.2734375 35.5234375 C49.31500715 62.94927663 89.46055552 81.38328201 125.5625 90.3125 C126.49400879 90.54324219 127.42551758 90.77398438 128.38525391 91.01171875 C146.29739415 95.15818866 163.92949892 96.49206623 182.28222656 96.39111328 C185.73282786 96.37507979 189.1822471 96.39103547 192.6328125 96.41015625 C212.07785102 96.42874161 231.37136577 94.76088095 250.4375 90.8125 C251.44643311 90.6060083 252.45536621 90.3995166 253.49487305 90.18676758 C289.898817 82.38772528 337.08412018 66.65863645 358.75390625 33.62109375 C360.39694538 31.4835977 361.63596646 30.37023901 364 29 C366.8834156 28.73062537 369.542887 28.62661973 372.421875 28.671875 C373.24069153 28.67374817 374.05950806 28.67562134 374.90313721 28.67755127 C376.63468499 28.68426573 378.36621777 28.69816826 380.09765625 28.71875 C382.7267087 28.74972558 385.3551586 28.75970778 387.984375 28.765625 C389.67188219 28.77480386 391.35938336 28.78518242 393.046875 28.796875 C394.21292267 28.80324982 394.21292267 28.80324982 395.40252686 28.80975342 C400.34182679 28.87325699 405.10826051 29.30713085 410 30 C405.48983651 40.39298543 397.67899018 48.37967656 390.11328125 56.6640625 C388.21557683 58.7617099 386.3865007 60.90103782 384.5625 63.0625 C373.08845027 76.13089377 358.04651814 86.4583252 343 95 C341.90703613 95.62624268 341.90703613 95.62624268 340.79199219 96.26513672 C307.42349147 115.1685081 269.92126156 123.42545485 232 127 C231.13769775 127.08612549 230.27539551 127.17225098 229.38696289 127.26098633 C217.95030176 128.25191067 206.4975248 128.18608646 195.02612305 128.18530273 C191.46976584 128.18748024 187.91372413 128.20566539 184.35742188 128.22460938 C116.3537163 128.39651597 49.01474499 108.82291229 -1.296875 61.51171875 C-3.50090589 59.46375363 -5.74158115 57.53551247 -8.0625 55.625 C-18.24138262 46.72634798 -26.02090087 35.18582936 -33.57763672 24.08251953 C-34.94299237 22.08346637 -36.33152297 20.10225065 -37.72265625 18.12109375 C-38.5460124 16.91524981 -39.36772164 15.70827911 -40.1875 14.5 C-41.26064453 12.93765625 -41.26064453 12.93765625 -42.35546875 11.34375 C-44.38863826 7.20979964 -44.77831149 3.5538781 -45 -1 C-7.19136913 -4.5323755 -7.19136913 -4.5323755 0 0 Z " fill="#FAFCFB" transform="translate(303,449)"/>
<path d="M0 0 C1.53898983 0.48590731 3.07805831 0.97156555 4.6171875 1.45703125 C21.65628452 6.97716014 37.12707384 14.59250219 51 26 C52.02738281 26.80308594 53.05476563 27.60617187 54.11328125 28.43359375 C63.5263745 35.87718274 73.83443432 45.25825741 75.5 57.75 C75 61 75 61 73.25 63.375 C69.7093077 65.93216666 66.53520289 66.12501615 62.24426651 66.12304783 C60.80586973 66.1260344 60.80586973 66.1260344 59.33841443 66.12908131 C58.28783691 66.12616847 57.23725939 66.12325563 56.15484619 66.12025452 C55.0366187 66.12110894 53.9183912 66.12196337 52.76627803 66.12284368 C49.00595309 66.12449547 45.24567241 66.11898198 41.48535156 66.11352539 C38.79513956 66.11324343 36.1049303 66.11335736 33.41471863 66.1139679 C27.61600534 66.11449244 21.8173033 66.1113529 16.01859283 66.10573006 C7.63461465 66.09760565 -0.7493581 66.09499887 -9.13333979 66.09374207 C-22.73554341 66.09155303 -36.33774104 66.08489695 -49.93994141 66.07543945 C-63.15380829 66.06626151 -76.36767354 66.05918254 -89.58154297 66.05493164 C-90.39594187 66.05466892 -91.21034077 66.05440619 -92.04941842 66.05413551 C-96.13498732 66.05283048 -100.22055624 66.05156677 -104.30612516 66.05032361 C-138.20408779 66.03995561 -172.10204316 66.02234131 -206 66 C-197.35092667 39.47617513 -171.71014445 24.1227161 -148.11865234 12.03613281 C-131.21042709 3.5264449 -113.32590626 -2.23191425 -94.625 -5.125 C-93.59117187 -5.29386719 -92.55734375 -5.46273438 -91.4921875 -5.63671875 C-61.20031047 -10.42162967 -29.2395719 -9.84464333 0 0 Z " fill="#07A465" transform="translate(556,298)"/>
<path d="M0 0 C22.2883347 17.40398932 22.2883347 17.40398932 23.375 25.4453125 C23.40851563 26.22132813 23.44203125 26.99734375 23.4765625 27.796875 C23.52554687 28.56773437 23.57453125 29.33859375 23.625 30.1328125 C23.1015625 32.421875 23.1015625 32.421875 21.14266682 34.53487778 C16.974766 37.12104926 13.73221148 36.96772212 8.92045593 36.90289307 C7.99330097 36.90631077 7.06614602 36.90972847 6.11089545 36.91324973 C3.00289679 36.91984048 -0.10423905 36.89783241 -3.2121582 36.87597656 C-5.43946818 36.87484835 -7.66677964 36.87548144 -9.89408875 36.87774658 C-15.94331651 36.87889565 -21.99222792 36.85535473 -28.04138207 36.82745075 C-34.36214109 36.80246947 -40.68290712 36.80009767 -47.00370789 36.79534912 C-57.61361824 36.78432363 -68.22340346 36.75932778 -78.83325195 36.72363281 C-89.7606549 36.68690776 -100.6880263 36.65859844 -111.61547852 36.64160156 C-112.2892259 36.64055067 -112.96297328 36.63949977 -113.65713725 36.63841704 C-117.03718399 36.63319682 -120.41723094 36.62814201 -123.79727805 36.62316942 C-151.83107869 36.58171332 -179.86475087 36.51097244 -207.8984375 36.421875 C-200.53241188 13.61329953 -179.04490927 0.91482905 -158.8984375 -9.578125 C-158.2384375 -9.92762207 -157.5784375 -10.27711914 -156.8984375 -10.63720703 C-109.34357629 -35.33183345 -43.51795004 -31.31564643 0 0 Z " fill="#252122" transform="translate(1718.8984375,345.578125)"/>
<path d="M0 0 C2.71623844 0.00313598 5.43135821 -0.02028627 8.14746094 -0.0456543 C23.98045478 -0.10458537 39.99118631 1.09621496 54.99902344 6.50317383 C56.29549805 6.95490967 56.29549805 6.95490967 57.61816406 7.41577148 C78.51437975 14.92221649 103.88556634 28.58875962 114.24902344 49.31567383 C114.71145118 56.59891082 114.71145118 56.59891082 112.99902344 59.25317383 C108.50091836 61.9841662 103.35567129 61.45317521 98.26409912 61.43592834 C96.88689898 61.43720998 96.88689898 61.43720998 95.48187661 61.43851751 C92.39870532 61.44016747 89.31558817 61.4346588 86.23242188 61.42919922 C84.02496339 61.42891722 81.81750482 61.42907534 79.61004639 61.42964172 C73.61046641 61.42992919 67.61090633 61.42404061 61.61133099 61.41706777 C55.34393603 61.41082583 49.07654065 61.41022976 42.80914307 61.40904236 C32.28747231 61.4062852 21.76580773 61.40003463 11.24414062 61.39111328 C0.40690141 61.38193391 -10.43033581 61.37485564 -21.26757812 61.37060547 C-21.93561424 61.37034275 -22.60365036 61.37008002 -23.29192999 61.36980934 C-26.6432794 61.3685043 -29.99462883 61.36724059 -33.34597826 61.36599743 C-61.14764946 61.35553866 -88.9493125 61.337944 -116.75097656 61.31567383 C-109.4557016 38.76276372 -88.78685003 26.16121065 -68.87646484 15.79711914 C-56.38112115 9.48522007 -43.4620245 5.13222417 -29.75097656 2.31567383 C-28.94789063 2.13689697 -28.14480469 1.95812012 -27.31738281 1.77392578 C-18.242268 -0.02205736 -9.21373828 -0.02214052 0 0 Z " fill="#252122" transform="translate(3545.7509765625,320.684326171875)"/>
<path d="M0 0 C1.01900391 -0.02964844 2.03800781 -0.05929687 3.08789062 -0.08984375 C8.98373022 -0.13697904 12.61086263 0.20200162 17.1875 4.3125 C19.13671875 6.57421875 19.13671875 6.57421875 20.875 9 C42.76061435 37.16224337 86.93849964 50.52101646 120.73373413 54.88092041 C161.63805153 59.86969211 206.44971881 56.48188293 242.1875 34.3125 C242.8475 33.6525 243.5075 32.9925 244.1875 32.3125 C246.5539856 32.07199097 246.5539856 32.07199097 249.55517578 32.08544922 C251.23669235 32.08567581 251.23669235 32.08567581 252.95217896 32.08590698 C254.16678802 32.09622955 255.38139709 32.10655212 256.6328125 32.1171875 C257.87296112 32.1200174 259.11310974 32.12284729 260.39083862 32.12576294 C263.68874633 32.13507826 266.98645972 32.1530511 270.28430176 32.1751709 C273.6491457 32.19562526 277.01401807 32.20476377 280.37890625 32.21484375 C286.98184723 32.23693481 293.58465771 32.27043517 300.1875 32.3125 C299.2360441 33.43136784 298.28332499 34.54916154 297.33007812 35.66650391 C296.79966919 36.28909088 296.26926025 36.91167786 295.72277832 37.5531311 C278.03072684 57.82753 247.62478477 70.46955279 222.1875 77.3125 C221.18372314 77.59988037 221.18372314 77.59988037 220.15966797 77.89306641 C214.21480079 79.58989946 208.23330174 81.02230606 202.1875 82.3125 C201.24696777 82.51439941 200.30643555 82.71629883 199.33740234 82.92431641 C164.9561616 89.85973465 124.44128867 90.01169232 90.1875 82.3125 C89.20168945 82.09819336 88.21587891 81.88388672 87.20019531 81.66308594 C53.89792391 74.22770717 23.68829034 60.25452598 -2.04296875 37.72265625 C-3.82023719 36.17600656 -5.63099568 34.66657149 -7.48046875 33.20703125 C-13.3179247 28.46470941 -17.81204149 22.15801765 -22.5 16.3125 C-22.9635791 15.74354004 -23.4271582 15.17458008 -23.90478516 14.58837891 C-27.21672721 10.40644128 -29.54996128 6.14490119 -31.8125 1.3125 C-21.21673933 0.61277996 -10.61824374 0.15624638 0 0 Z " fill="#FAFCFA" transform="translate(347.8125,446.6875)"/>
<path d="M0 0 C1.22323975 0.01135986 2.44647949 0.02271973 3.70678711 0.03442383 C22.35412882 0.43359484 39.96970077 5.92611536 53.9375 18.75 C59.93151694 25.17715103 62.48491815 31.23527435 62.75 40.0625 C62.51357798 46.41394564 61.55334659 51.12103631 58.1875 56.5 C57.82140625 57.16128906 57.4553125 57.82257813 57.078125 58.50390625 C50.44201358 68.97011902 36.62549819 75.09293671 25.1875 78.5 C0.94746968 83.24331135 -23.29695129 79.46690193 -44.3515625 66.99609375 C-51.08138581 62.4359239 -56.30117812 55.22349935 -58.8125 47.5 C-59.94199052 38.21453723 -58.46946638 30.45291781 -52.89453125 22.90234375 C-39.46013402 7.13773248 -20.49392867 -0.3250301 0 0 Z " fill="#FDFDFD" transform="translate(2895.8125,153.5)"/>
<path d="M0 0 C7.55149382 4.08499856 15.02830998 10.95208589 19.140625 18.54296875 C21.79498839 27.48334726 21.66205928 40.88528646 17.45703125 49.265625 C11.68400749 57.87099017 5.8465905 63.15530317 -4 66.4375 C-15.09987669 67.66064661 -25.86390665 67.54807188 -35 60.4375 C-43.16542794 52.58249329 -47.32330167 43.87552277 -47.625 32.5625 C-47.59119764 24.78613046 -45.27629019 18.95961165 -41 12.4375 C-40.42572266 11.51710938 -40.42572266 11.51710938 -39.83984375 10.578125 C-31.4458757 -1.09520691 -13.0561263 -5.31831718 0 0 Z " fill="#069853" transform="translate(93,695.5625)"/>
<path d="M0 0 C7.55149382 4.08499856 15.02830998 10.95208589 19.140625 18.54296875 C21.79498839 27.48334726 21.66205928 40.88528646 17.45703125 49.265625 C11.68400749 57.87099017 5.8465905 63.15530317 -4 66.4375 C-15.09987669 67.66064661 -25.86390665 67.54807188 -35 60.4375 C-43.16542794 52.58249329 -47.32330167 43.87552277 -47.625 32.5625 C-47.59119764 24.78613046 -45.27629019 18.95961165 -41 12.4375 C-40.42572266 11.51710938 -40.42572266 11.51710938 -39.83984375 10.578125 C-31.4458757 -1.09520691 -13.0561263 -5.31831718 0 0 Z M-37.44140625 15.31640625 C-42.46148655 22.14824485 -42.93732032 30.20631928 -42 38.4375 C-39.93227182 47.33263256 -34.27200055 55.0624547 -26.5625 60 C-19.31342379 63.10059497 -9.43836787 62.6597409 -1.921875 60.58984375 C5.70275037 57.1400516 11.25370034 51.19071464 14.40893555 43.44482422 C15.52668495 39.64881611 15.4716425 35.86699092 15.4375 31.9375 C15.45748047 31.12152344 15.47746094 30.30554688 15.49804688 29.46484375 C15.49231789 22.32653164 13.44242124 18.20997817 8.6875 12.8125 C1.09584297 6.10359379 -5.62334274 2.77125479 -16.03125 3 C-24.40888959 4.23459952 -31.81461413 9.12810473 -37.44140625 15.31640625 Z " fill="#E4EEE9" transform="translate(93,695.5625)"/>
<path d="M0 0 C21.75585284 0 21.75585284 0 27 4 C29.45485943 7.68228915 29.82932584 10.72454348 29 15 C27.55625961 17.3894658 25.99679341 19.00320659 24 21 C24.639375 21.763125 25.27875 22.52625 25.9375 23.3125 C28.67191789 26.87552938 29.12573344 29.32439271 29.0625 33.6875 C29.05347656 34.49574219 29.04445313 35.30398438 29.03515625 36.13671875 C29.02355469 36.75160156 29.01195313 37.36648438 29 38 C26.125 38.1875 26.125 38.1875 23 38 C20.79086 34.68629 20.77518447 33.6553979 20.875 29.8125 C20.89304687 28.91144531 20.91109375 28.01039063 20.9296875 27.08203125 C20.95289062 26.39496094 20.97609375 25.70789063 21 25 C19.86111328 24.90912109 19.86111328 24.90912109 18.69921875 24.81640625 C17.70535156 24.73261719 16.71148437 24.64882813 15.6875 24.5625 C14.70136719 24.48128906 13.71523437 24.40007813 12.69921875 24.31640625 C10 24 10 24 7 23 C7 27.95 7 32.9 7 38 C4.69 38 2.38 38 0 38 C0 25.46 0 12.92 0 0 Z " fill="#ECF1EE" transform="translate(66,709)"/>
<path d="M0 0 C8.94736842 -0.35789474 8.94736842 -0.35789474 13.125 1.0625 C15 3 15 3 15.5625 6.5 C15 10 15 10 13.32421875 11.70703125 C9.11055724 14.05110177 4.72223896 13.16865139 0 13 C0 8.71 0 4.42 0 0 Z " fill="#039750" transform="translate(73,714)"/>
</svg>
